<svg xmlns="http://www.w3.org/2000/svg" viewBox="0 0 129 44"><path d="M109.203 23.842H98.806c-3.416.05-6.014 1.06-7.72 3.014-2.463 2.82-2.145 6.587-2.08 7.153.01 3.21.96 5.725 2.824 7.47C94.3 43.792 97.594 44 98.702 44c.168 0 .285-.005.342-.008 3.38-.005 5.993-.99 7.765-2.923 2.595-2.837 2.41-6.693 2.377-7.177v-5.947h3.44l1.77-4.09h-2.466c-1.344 0-2.192-.012-2.727-.014zm-5.65 14.475c-1 1.07-2.508 1.615-4.483 1.615h-.035c-.026.002-2.57.07-4.253-1.557-1.035-1-1.56-2.463-1.56-4.35l-.004-.1c-.003-.027-.26-2.614 1.3-4.352.994-1.105 2.546-1.666 4.614-1.666 1.878 0 4.473 0 5.83.005v1.568c.006 2.588.016 5.173.016 5.173v.122c-.077.903-.368 2.41-1.425 3.542z" fill="#52A3D4"/><path d="M104.593 23.842l-.175 4.067h1.62l-.003-4.063-1.442-.005zM109.503 27.945l.223-4.096-1.668-.014-.033 4.12 1.478-.01z" fill="#488FBA"/><linearGradient id="a" gradientUnits="userSpaceOnUse" x1="100.865" y1="22.842" x2="122.743" y2="6.355"><stop offset="0" stop-color="#52A3D4"/><stop offset=".153" stop-color="#4F9FD0"/><stop offset=".32" stop-color="#4892C2"/><stop offset=".495" stop-color="#3C7DAC"/><stop offset=".674" stop-color="#2B5F8E"/><stop offset=".856" stop-color="#153967"/><stop offset="1" stop-color="#001642"/></linearGradient><path d="M124.616 9.695c-1.67-5.277-6.925-6.37-9.5-6.212-3.38.006-5.99.99-7.762 2.923-2.596 2.836-2.412 6.692-2.378 7.176v6.42l-.017 4.075c.012 0 0 0 0 0 0 .51 0 1.038.002 1.568l.006 2.643h4.218v-4.176l.015-5.37h.002v-.746c-.006-2.588-.016-5.173-.016-5.173V12.7c.075-.902.367-2.408 1.424-3.54 1-1.072 2.508-1.616 4.483-1.616h.037c.037-.002 3.712-.12 5.178 2.83l.25.504h4.432l-.374-1.183z" fill="url(#a)"/><g fill="#231F20"><path d="M16.773 0v18.44c0 1.075-.874 1.88-1.98 2.014-3.09.35-5.45.35-8.54 0-1.077-.107-1.893-.886-1.98-1.88-.35-3.757-.35-6.736 0-10.494.087-.994.902-1.772 1.98-1.88 2.507-.268 4.81-.35 7.315-.16V0h3.205zm-3.205 8.992c-1.982-.16-3.73-.16-5.682 0-.29.027-.525.24-.525.51-.203 2.657-.203 4.993 0 7.65.03.27.234.483.526.51 1.777.134 3.38.16 5.158 0 .32-.027.525-.27.525-.537V8.992zM21.99 6.174v10.95c0 .27.232.51.523.538 1.923.134 3.672.16 5.595 0V6.174h3.206v18.548c0 1.074-.874 1.88-1.982 2.013-3.41.376-6.586.322-9.995 0l.35-2.926c2.71.267 5.216.348 7.897.133.29-.027.524-.268.524-.537v-2.792c-2.506.188-4.808.107-7.314-.16-1.136-.108-2.01-.94-2.01-2.014V6.174h3.205zM33.324 20.454V8.187c0-1.047.874-1.88 2.01-1.986 3.177-.348 5.334-.348 8.51 0 1.136.108 2.01.94 2.01 1.987v12.267H42.65V9.53c0-.296-.234-.51-.525-.538-1.807-.16-3.264-.16-5.07 0-.292.027-.525.24-.525.537v10.924h-3.206zM48.39 6.174c3.41-.35 6.556-.35 9.966 0 1.136.107 2.01.94 2.01 2.013v10.28c0 1.048-.874 1.853-1.98 1.987-3.06.35-5.51.35-8.54 0-1.048-.107-1.806-.805-1.98-1.772-.38-2.147-.38-3.006 0-5.154.174-.94.99-1.664 2.01-1.772 2.506-.268 4.78-.35 7.285-.16V9.5c0-.27-.232-.51-.524-.537-2.68-.188-5.187-.134-7.897.134l-.35-2.926zm8.77 8.374c-2.01-.16-3.816-.134-5.798.027-.262.027-.495.215-.525.456-.116.806-.116 1.343 0 2.148.058.242.233.43.525.456 1.836.188 3.44.188 5.274.027.29-.026.525-.24.525-.536v-2.576zM62.377 20.454V8.187c0-1.047.874-1.852 1.982-1.986 2.855-.375 5.273-.375 8.13 0 .145.028.26.055.378.082.116-.027.233-.054.38-.08 2.855-.377 5.273-.377 8.13 0 1.106.133 1.98.938 1.98 1.985v12.267h-3.204V9.502c0-.27-.233-.51-.525-.537-1.575-.134-3.06-.134-4.634 0-.29.027-.525.268-.525.537v10.952h-3.204V9.502c0-.27-.233-.51-.525-.537-1.572-.134-3.06-.134-4.632 0-.29.027-.524.268-.524.537v10.952h-3.207zM88.574 0v3.22h-3.206V0h3.206zm0 6.174v14.28h-3.206V6.174h3.206zM101.454 9.126c-2.564-.27-4.75-.322-7.285-.107-.263.026-.496.214-.526.482-.204 2.657-.204 4.993 0 7.65.03.27.262.456.525.483 2.534.215 4.72.16 7.284-.107l.35 2.926c-3.264.322-5.974.35-9.238 0-1.078-.107-1.923-.886-2.01-1.88-.322-3.757-.322-6.736 0-10.494.087-.993.93-1.772 2.01-1.88 3.264-.348 5.974-.32 9.238 0l-.35 2.926z"/></g><g fill="#231F20"><path d="M34.027 40.09V27.075c0-.577.522-1.057 1.148-1.057h9.184v1.346h-8.454c-.23 0-.418.173-.418.385v4.634h6.783v1.346H35.49v6.364h-1.46zM47.26 26.017V38.36c0 .212.188.386.418.386h6.992v1.346h-7.722c-.647 0-1.148-.462-1.148-1.057V26.017h1.46zM66.525 27.017c.27 4.134.27 7.94 0 12.055-.02.558-.48.96-1.064 1.02-2.92.25-5.593.25-8.494 0-.584-.06-1.044-.463-1.064-1.02-.27-4.057-.27-7.98 0-12.055.02-.538.48-.96 1.064-1 2.964-.25 5.53-.25 8.495 0 .585.04 1.044.462 1.065 1zm-1.795.288c-2.42-.192-4.634-.192-7.034 0-.21 0-.376.154-.376.365-.23 3.615-.23 7.153 0 10.767 0 .192.167.346.376.365 2.38.173 4.655.173 7.034 0 .21-.02.376-.173.376-.365.21-3.672.21-7.114 0-10.767 0-.21-.167-.365-.376-.365z"/></g><path d="M83.795 25.86v13.02c0 .586-.482 1.01-1.095 1.09-2.17.283-4.052.283-6.243 0-.11-.02-.22-.04-.328-.08-.11.04-.22.06-.33.08-2.17.283-4.074.283-6.243 0-.613-.08-1.095-.504-1.095-1.09V25.843h1.533v12.413c0 .202.175.383.394.404 1.576.16 3.022.16 4.577 0 .24-.02.394-.203.394-.405V25.842h1.534v12.413c0 .202.175.383.394.404 1.577.16 3.023.16 4.578 0 .24-.02.394-.203.394-.405V25.86h1.535z" fill="#231F20"/></svg>